
<svg xmlns="http://www.w3.org/2000/svg" version="1.1" xmlns:xlink="http://www.w3.org/1999/xlink" preserveAspectRatio="none" x="0px" y="0px" width="400px" height="175px" viewBox="0 0 400 175">
<defs>
<g id="Layer1_0_FILL">
<path fill="#999999" stroke="none" d="
M 347.35 169.95
L 347.35 159.45 343.6 159.45 263.15 159.45 257.6 159.45 257.6 169.95 347.35 169.95
M 347.35 170.05
L 347.35 169.95 257.6 169.95 257.6 170.05 347.35 170.05
M 271.6 37.7
Q 271.5 39.35 271.6 40.85 277.15 40.1 277.65 34.25 272.5 34.8 271.6 37.7
M 288.25 35.7
Q 291.7 35.2 292.05 32.35 290.6 30 286.45 29.05 281.35 33.1 283.2 34.25 283.8 36.2 288.25 35.7 Z"/>

<path fill="#6CA2FB" stroke="none" d="
M 343.6 159.45
Q 343.2 148.2 328.75 144.6 322.5 144.2 312.6 147.35 302.7 150.45 294.2 147.4 285.6 144.25 277.75 145.45 264.6 147.4 263.15 159.45
L 343.6 159.45 Z"/>

<path fill="#E7F7FF" stroke="none" d="
M 288.85 136.95
Q 289.6 139.75 292.85 139.95 301.1 139.4 299.55 132.3 297.4 134.05 292.85 133.45 289.35 133.05 288.85 136.95
M 301.35 129.2
Q 303.9 127.6 303.35 124.85 302.25 116.95 291.4 120.55 292.3 122.2 291.85 125.85 299.25 122.6 301.35 129.2
M 300.35 131.5
Q 301.05 130.5 301.35 129.2 299.25 122.6 291.85 125.85 288.8 131.4 292.85 133.45 297.4 134.05 299.55 132.3 300.05 132 300.35 131.5
M 287.85 119
L 298.15 109.05
Q 300.25 97.8 290.05 98.25 290.95 109.25 287.85 119
M 298.15 109.05
L 287.85 119
Q 301.55 111.45 303.8 118.5 306.95 108.05 298.15 109.05
M 287.85 119
Q 290.4 118.75 291.4 120.55 302.25 116.95 303.35 124.85 305.35 123.85 303.8 118.5 301.55 111.45 287.85 119
M 289.55 93.6
L 283.5 96.3
Q 286.05 107.1 284.35 119
L 287.85 119
Q 290.95 109.25 290.05 98.25 289.85 95.95 289.55 93.6
M 326.15 26.4
Q 327.1 23.15 325.9 20.5 319.3 19.05 315.1 20.55 316.3 20.85 317.45 21.25 322.35 22.9 326.15 26.4 Z"/>

<path fill="#D8D8D8" stroke="none" d="
M 280.7 79
L 282.9 78.45
Q 291.9 68.8 293.85 54.85
L 282.55 66.15
Q 279.7 72.55 280.7 79
M 270.6 76.8
Q 268.45 79.6 270.6 81.1 278.75 89.5 280.35 103.5 281.3 110.3 280.9 119
L 284.35 119
Q 286.05 107.1 283.5 96.3
L 282 96.9 282 88.75 275.7 80.1 278.15 79.6
Q 275.75 73.55 270.6 76.8
M 305.55 19.75
Q 302.1 19.65 297.2 21.3 310.85 34 293.85 54.85 291.9 68.8 282.9 78.45
L 280.7 79 278.15 79.6 275.7 80.1 282 88.75 282 96.9 283.5 96.3 289.55 93.6 294.65 91.4
Q 296.85 84.05 294.65 77.95 298.65 77.75 300.95 73.8 310.95 44.1 305.55 19.75
M 292.05 32.35
Q 291.7 35.2 288.25 35.7 283.8 36.2 283.2 34.25 279.95 34 277.65 34.25 277.15 40.1 271.6 40.85 271.85 51 278.25 49.7 288 46.3 289.85 49.7 290.95 53.15 285.75 55.15 282.15 58.25 278.55 57.65 276.5 61.65 282.55 66.15
L 293.85 54.85
Q 310.85 34 297.2 21.3 292.5 23.15 291.65 27.1 290.45 25.9 287.35 28.35 286.85 28.65 286.45 29.05 290.6 30 292.05 32.35
M 311.6 19.9
Q 308.75 19.55 305.55 19.75 310.95 44.1 300.95 73.8 304.8 76.65 308.6 76.8 309.95 60.1 311.95 45.55 313.05 32.05 311.6 19.9
M 317.45 21.25
Q 316.3 20.85 315.1 20.55 313.4 20.1 311.6 19.9 313.05 32.05 311.95 45.55 309.95 60.1 308.6 76.8 307.95 84.85 307.5 93.4 315 97.65 323.45 98.75 322.7 84 318.8 71.1 318.1 70.95 317.45 70.8 325.5 37.05 317.45 21.25
M 331.35 77.45
Q 329.55 76.65 327.75 75.45
L 327.75 71.4
Q 323.3 71.9 318.8 71.1 322.7 84 323.45 98.75 315 97.65 307.5 93.4 307.95 84.85 308.6 76.8 304.8 76.65 300.95 73.8 298.65 77.75 294.65 77.95 296.85 84.05 294.65 91.4
L 289.55 93.6
Q 289.85 95.95 290.05 98.25 300.25 97.8 298.15 109.05 306.95 108.05 303.8 118.5 305.35 123.85 303.35 124.85 303.9 127.6 301.35 129.2 301.05 130.5 300.35 131.5 300.05 132 299.55 132.3 301.1 139.4 292.85 139.95 289.6 139.75 288.85 136.95 289.35 133.05 292.85 133.45 288.8 131.4 291.85 125.85 292.3 122.2 291.4 120.55 290.4 118.75 287.85 119
L 284.35 119 280.9 119
Q 274.75 127.05 277.75 145.45 285.6 144.25 294.2 147.4 302.7 150.45 312.6 147.35 322.5 144.2 328.75 144.6 331.1 142.8 332.75 137.5 335.95 114.6 331.2 98.95 327.3 97.45 323.75 95.4 327.3 97.45 331.2 98.95 334.35 100 337.75 100.75 336.85 89.75 331.35 77.45
M 331.2 70.8
Q 329.5 71.2 327.75 71.4
L 327.75 75.45
Q 329.55 76.65 331.35 77.45 335.05 79.2 338.5 79.15
L 334.35 70.3 333 52.05 329.6 50.1 329.75 66.95
Q 329.7 69.7 331.2 70.8
M 334.45 39.95
Q 331.5 31.35 326.15 26.4 322.35 22.9 317.45 21.25 325.5 37.05 317.45 70.8 318.1 70.95 318.8 71.1 323.3 71.9 327.75 71.4 329.5 71.2 331.2 70.8 329.7 69.7 329.75 66.95
L 329.6 50.1 327.2 48.7 327.3 28.15 327.2 48.7 329.6 50.1 333 52.05 336.4 54.05 334.45 39.95 Z"/>
</g>

<g id="Layer0_0_FILL">
<path fill="#6CA2FB" stroke="none" d="
M 153.75 19.95
Q 152.65 19 152.7 17.05 152.85 14.65 152.35 9.05 148.75 9.95 147.25 8.15 144.6 5.25 141.7 5.55
L 141.7 16.15
Q 143.1 16.2 144.6 17.15 145.75 17.8 146.6 18.9 147.5 19.95 148.6 20.65 149.2 21.05 149.95 21.15 151.6 21.45 153.75 19.95 Z"/>

<path fill="#D8D8D8" stroke="none" d="
M 90.9 170.05
L 90.35 63.15
Q 77.75 63.75 78.15 71.75
L 78.4 170.05 90.9 170.05
M 60.75 94.9
L 54.4 94.9 54.4 104.15 49.5 104.15 49.5 170.05 78.4 170.05 78.15 71.75 75.25 71.75 73.65 73.65 73.65 78.9 67.4 78.9 67.4 86.4 60.75 86.4 60.75 94.9
M 60.5 136.5
Q 61.35 112.25 64.5 110.55 68.1 111.75 68.25 136.5
L 60.5 136.5
M 186.35 63.4
L 186.35 57.4 180.7 57.4 180.7 52.4
Q 179.1 50.15 177.45 52.4
L 177.45 57.45 174.7 57.45 174.7 52.2
Q 172.15 49.4 170.2 52.2
L 170.2 57.25 167.5 57.25 167.5 52
Q 165.9 49.45 164.25 52
L 164.25 57 159.5 57 159.5 51.75
Q 157.25 49.3 155 51.75
L 155 56.8 149.55 56.85 149.55 51.6
Q 147.95 49.35 146.3 51.6
L 146.3 56.6 141.55 56.6 141.55 51.35
Q 139 48.55 137.05 51.35
L 137.05 56.4 131.3 56.45 131.3 51.2
Q 129.7 48.65 128.05 51.2
L 128.05 56.2 123.3 56.2 123.3 50.95
Q 121.05 48.5 118.8 50.95
L 118.8 56 112.9 56.05 112.9 51.3
Q 111.3 48.75 109.65 51.3
L 109.65 56.3 106.2 56.3 106.2 51.05
Q 103.95 48.4 101.7 51.05
L 101.7 56.1 97.55 56.1 97.55 51.35
Q 95.95 48.8 94.3 51.35
L 94.3 56.1 90.35 56.1 90.35 63.15 90.9 170.05 120.7 170.05 120.7 124.55
Q 122.15 118.2 128.45 112.75 134.05 107.7 138.2 107.35 142.7 107.1 148.7 113.3 154.65 119.45 156.45 125.3
L 156.45 170.65 186.9 170.65 186.35 63.4
M 136.35 67.1
L 140.8 67.1 140.8 81.1 148.5 81.1 148.5 85.65 140.8 85.65 140.8 101.9 136.35 101.9 136.35 85.65 128.65 85.65 128.65 81.1 136.35 81.1 136.35 67.1
M 140.8 81.1
L 140.8 82.7 148.5 81.1 140.8 81.1
M 128.65 81.1
L 136.35 82.7 136.35 81.1 128.65 81.1
M 198 71.05
Q 193.9 64.35 186.35 63.4
L 186.9 170.65 197.9 170.65 198 71.05
M 201.1 71.05
L 198 71.05 197.9 170.65 227.9 170.65 227.1 153.75 227.1 105.9 225.5 104.55 222.25 104.55 222.25 94.9 216.5 94.9 216.5 85.55 209.6 85.55 209.6 78.55 203.6 78.55 203.6 72.8
Q 202.35 71.2 201.1 71.05
M 209.55 111.8
Q 210 110.85 210.55 110.55 214.15 111.75 214.3 136.5
L 206.55 136.5
Q 206.95 124.55 207.95 118.05 208.6 113.65 209.55 111.8 Z"/>

<path fill="#E7F7FF" stroke="none" d="
M 130.25 115.65
Q 125.1 120.8 123.9 126.8
L 123.9 170.05 153.15 170.65 153.15 127.55
Q 151.7 122 146.8 116.2 141.9 110.35 138.25 110.55 134.85 110.9 130.25 115.65 Z"/>

<path fill="#999999" stroke="none" d="
M 123.9 126.8
Q 125.1 120.8 130.25 115.65 134.85 110.9 138.25 110.55 141.9 110.35 146.8 116.2 151.7 122 153.15 127.55
L 153.15 170.65 156.45 170.65 156.45 125.3
Q 154.65 119.45 148.7 113.3 142.7 107.1 138.2 107.35 134.05 107.7 128.45 112.75 122.15 118.2 120.7 124.55
L 120.7 170.05 123.9 170.05 123.9 126.8
M 171.6 43.65
L 168.6 43.65 168.6 40.15 167.5 38.65 158.25 38.65 158.25 43.8 153.1 43.8 153.1 39.8 151.5 37.8 145 37.8 143.5 40.15 143.5 44.05 141.25 44.05 139.05 44.05 134.6 44.05 134.6 40.05 132.85 37.8 123 37.8 123 43.9 119.25 43.9 119.25 37.8 109 37.8 109 43.9 105.1 43.9 105.1 37.65 97.35 37.65 90.35 49.05 90.35 56.1 94.3 56.1 94.3 51.35
Q 95.95 48.8 97.55 51.35
L 97.55 56.1 101.7 56.1 101.7 51.05
Q 103.95 48.4 106.2 51.05
L 106.2 56.3 109.65 56.3 109.65 51.3
Q 111.3 48.75 112.9 51.3
L 112.9 56.05 118.8 56 118.8 50.95
Q 121.05 48.5 123.3 50.95
L 123.3 56.2 128.05 56.2 128.05 51.2
Q 129.7 48.65 131.3 51.2
L 131.3 56.45 137.05 56.4 137.05 51.35
Q 139 48.55 141.55 51.35
L 141.55 56.6 146.3 56.6 146.3 51.6
Q 147.95 49.35 149.55 51.6
L 149.55 56.85 155 56.8 155 51.75
Q 157.25 49.3 159.5 51.75
L 159.5 57 164.25 57 164.25 52
Q 165.9 49.45 167.5 52
L 167.5 57.25 170.2 57.25 170.2 52.2
Q 172.15 49.4 174.7 52.2
L 174.7 57.45 177.45 57.45 177.45 52.4
Q 179.1 50.15 180.7 52.4
L 180.7 57.4 186.35 57.4 186.35 50.05 179.5 38.15 171.6 38.15 171.6 43.65 Z"/>

<path fill="#669EFD" stroke="none" d="
M 64.5 110.55
Q 61.35 112.25 60.5 136.5
L 68.25 136.5
Q 68.1 111.75 64.5 110.55
M 140.8 67.1
L 136.35 67.1 136.35 81.1 136.35 82.7 128.65 81.1 128.65 85.65 136.35 85.65 136.35 101.9 140.8 101.9 140.8 85.65 148.5 85.65 148.5 81.1 140.8 82.7 140.8 81.1 140.8 67.1
M 210.55 110.55
Q 210 110.85 209.55 111.8 208.6 113.65 207.95 118.05 206.95 124.55 206.55 136.5
L 214.3 136.5
Q 214.15 111.75 210.55 110.55 Z"/>

<path fill="#979797" stroke="none" d="
M 141.25 2.4
Q 139.95 0.7 139.05 2.3
L 139.05 44.05 141.25 44.05 141.25 2.4 Z"/>
</g>

<path id="Layer1_0_1_STROKES" stroke="#4E4946" stroke-width="3" stroke-linejoin="round" stroke-linecap="round" fill="none" d="
M 326.15 26.4
Q 331.5 31.35 334.45 39.95
L 336.4 54.05 333 52.05 334.35 70.3 338.5 79.15
Q 335.05 79.2 331.35 77.45 336.85 89.75 337.75 100.75 334.35 100 331.2 98.95 335.95 114.6 332.75 137.5 331.1 142.8 328.75 144.6 343.2 148.2 343.6 159.45
L 347.35 159.45 347.35 169.95 399 169.95
M 315.1 20.55
Q 319.3 19.05 325.9 20.5 327.1 23.15 326.15 26.4 322.35 22.9 317.45 21.25 325.5 37.05 317.45 70.8 318.1 70.95 318.8 71.1 323.3 71.9 327.75 71.4 329.5 71.2 331.2 70.8 329.7 69.7 329.75 66.95
L 329.6 50.1 327.2 48.7 327.3 28.15
M 333 52.05
L 329.6 50.1
M 331.35 77.45
Q 329.55 76.65 327.75 75.45
L 327.75 71.4
M 347.35 169.95
L 347.35 170.05 257.6 170.05 257.6 169.95 2 169.95
M 315.1 20.55
Q 316.3 20.85 317.45 21.25
M 286.45 29.05
Q 286.85 28.65 287.35 28.35 290.45 25.9 291.65 27.1 292.5 23.15 297.2 21.3 302.1 19.65 305.55 19.75 308.75 19.55 311.6 19.9 313.4 20.1 315.1 20.55
M 286.45 29.05
Q 290.6 30 292.05 32.35 291.7 35.2 288.25 35.7 283.8 36.2 283.2 34.25 279.95 34 277.65 34.25 277.15 40.1 271.6 40.85 271.85 51 278.25 49.7 288 46.3 289.85 49.7 290.95 53.15 285.75 55.15 282.15 58.25 278.55 57.65 276.5 61.65 282.55 66.15
L 293.85 54.85
Q 310.85 34 297.2 21.3
M 305.55 19.75
Q 310.95 44.1 300.95 73.8 304.8 76.65 308.6 76.8 309.95 60.1 311.95 45.55 313.05 32.05 311.6 19.9
M 271.6 40.85
Q 271.5 39.35 271.6 37.7 272.5 34.8 277.65 34.25
M 278.15 79.6
Q 275.75 73.55 270.6 76.8 268.45 79.6 270.6 81.1 278.75 89.5 280.35 103.5 281.3 110.3 280.9 119
L 284.35 119
Q 286.05 107.1 283.5 96.3
L 282 96.9 282 88.75 275.7 80.1 278.15 79.6 280.7 79
Q 279.7 72.55 282.55 66.15
M 280.7 79
L 282.9 78.45
Q 291.9 68.8 293.85 54.85
M 300.95 73.8
Q 298.65 77.75 294.65 77.95 296.85 84.05 294.65 91.4
L 289.55 93.6
Q 289.85 95.95 290.05 98.25 300.25 97.8 298.15 109.05 306.95 108.05 303.8 118.5 305.35 123.85 303.35 124.85 303.9 127.6 301.35 129.2 301.05 130.5 300.35 131.5 300.05 132 299.55 132.3 301.1 139.4 292.85 139.95 289.6 139.75 288.85 136.95 289.35 133.05 292.85 133.45 288.8 131.4 291.85 125.85 292.3 122.2 291.4 120.55 290.4 118.75 287.85 119
L 284.35 119
M 289.55 93.6
L 283.5 96.3
M 318.8 71.1
Q 322.7 84 323.45 98.75 315 97.65 307.5 93.4 307.95 84.85 308.6 76.8
M 283.2 34.25
Q 281.35 33.1 286.45 29.05
M 298.15 109.05
L 287.85 119
Q 301.55 111.45 303.8 118.5
M 291.85 125.85
Q 299.25 122.6 301.35 129.2
M 299.55 132.3
Q 297.4 134.05 292.85 133.45
M 291.4 120.55
Q 302.25 116.95 303.35 124.85
M 277.75 145.45
Q 274.75 127.05 280.9 119
M 257.6 169.95
L 257.6 159.45 263.15 159.45
Q 264.6 147.4 277.75 145.45 285.6 144.25 294.2 147.4 302.7 150.45 312.6 147.35 322.5 144.2 328.75 144.6
M 287.85 119
Q 290.95 109.25 290.05 98.25
M 257.6 169.95
L 347.35 169.95
M 263.15 159.45
L 343.6 159.45
M 331.2 98.95
Q 327.3 97.45 323.75 95.4"/>

<path id="Layer0_0_1_STROKES" stroke="#4E4946" stroke-width="3" stroke-linejoin="round" stroke-linecap="round" fill="none" d="
M 141.25 44.05
L 143.5 44.05 143.5 40.15 145 37.8 151.5 37.8 153.1 39.8 153.1 43.8 158.25 43.8 158.25 38.65 167.5 38.65 168.6 40.15 168.6 43.65 171.6 43.65 171.6 38.15 179.5 38.15 186.35 50.05 186.35 57.4 186.35 63.4
Q 193.9 64.35 198 71.05
L 201.1 71.05
Q 202.35 71.2 203.6 72.8
L 203.6 78.55 209.6 78.55 209.6 85.55 216.5 85.55 216.5 94.9 222.25 94.9 222.25 104.55 225.5 104.55 227.1 105.9 227.1 153.75 227.9 170.65 197.9 170.65 186.9 170.65 156.45 170.65 153.15 170.65 123.9 170.05 120.7 170.05 90.9 170.05 78.4 170.05 49.5 170.05 49.5 104.15 54.4 104.15 54.4 94.9 60.75 94.9 60.75 86.4 67.4 86.4 67.4 78.9 73.65 78.9 73.65 73.65 75.25 71.75 78.15 71.75
Q 77.75 63.75 90.35 63.15
L 90.35 56.1 90.35 49.05 97.35 37.65 105.1 37.65 105.1 43.9 109 43.9 109 37.8 119.25 37.8 119.25 43.9 123 43.9 123 37.8 132.85 37.8 134.6 40.05 134.6 44.05 139.05 44.05 139.05 2.3
Q 139.95 0.7 141.25 2.4
L 141.25 44.05 139.05 44.05
M 90.35 56.1
L 94.3 56.1 94.3 51.35
Q 95.95 48.8 97.55 51.35
L 97.55 56.1 101.7 56.1 101.7 51.05
Q 103.95 48.4 106.2 51.05
L 106.2 56.3 109.65 56.3 109.65 51.3
Q 111.3 48.75 112.9 51.3
L 112.9 56.05 118.8 56 118.8 50.95
Q 121.05 48.5 123.3 50.95
L 123.3 56.2 128.05 56.2 128.05 51.2
Q 129.7 48.65 131.3 51.2
L 131.3 56.45 137.05 56.4 137.05 51.35
Q 139 48.55 141.55 51.35
L 141.55 56.6 146.3 56.6 146.3 51.6
Q 147.95 49.35 149.55 51.6
L 149.55 56.85 155 56.8 155 51.75
Q 157.25 49.3 159.5 51.75
L 159.5 57 164.25 57 164.25 52
Q 165.9 49.45 167.5 52
L 167.5 57.25 170.2 57.25 170.2 52.2
Q 172.15 49.4 174.7 52.2
L 174.7 57.45 177.45 57.45 177.45 52.4
Q 179.1 50.15 180.7 52.4
L 180.7 57.4 186.35 57.4
M 206.55 136.5
Q 206.95 124.55 207.95 118.05 208.6 113.65 209.55 111.8 210 110.85 210.55 110.55 214.15 111.75 214.3 136.5
L 206.55 136.5 Z
M 186.35 63.4
L 186.9 170.65
M 198 71.05
L 197.9 170.65
M 152.35 9.05
Q 148.75 9.95 147.25 8.15 144.6 5.25 141.7 5.55
L 141.7 16.15
Q 143.1 16.2 144.6 17.15 145.75 17.8 146.6 18.9 147.5 19.95 148.6 20.65 149.2 21.05 149.95 21.15 151.6 21.45 153.75 19.95 152.65 19 152.7 17.05 152.85 14.65 152.35 9.05 Z
M 136.35 81.1
L 136.35 67.1 140.8 67.1 140.8 81.1 148.5 81.1 148.5 85.65 140.8 85.65 140.8 101.9 136.35 101.9 136.35 85.65 128.65 85.65 128.65 81.1 136.35 81.1 Z
M 60.5 136.5
Q 61.35 112.25 64.5 110.55 68.1 111.75 68.25 136.5
L 60.5 136.5 Z
M 123.9 170.05
L 123.9 126.8
Q 125.1 120.8 130.25 115.65 134.85 110.9 138.25 110.55 141.9 110.35 146.8 116.2 151.7 122 153.15 127.55
L 153.15 170.65
M 120.7 170.05
L 120.7 124.55
Q 122.15 118.2 128.45 112.75 134.05 107.7 138.2 107.35 142.7 107.1 148.7 113.3 154.65 119.45 156.45 125.3
L 156.45 170.65
M 90.35 63.15
L 90.9 170.05
M 78.15 71.75
L 78.4 170.05"/>
</defs>

<g transform="matrix( 1, 0, 0, 1, 0,0) ">
<use xlink:href="#Layer1_0_FILL"/>

<use xlink:href="#Layer1_0_1_STROKES"/>
</g>

<g transform="matrix( 1, 0, 0, 1, 0,0) ">
<use xlink:href="#Layer0_0_FILL"/>

<use xlink:href="#Layer0_0_1_STROKES"/>
</g>
</svg>
